<svg width="29" height="29" viewBox="0 0 29 29" fill="none" xmlns="http://www.w3.org/2000/svg">
<rect width="29" height="29" rx="5" fill="#1D61ED"/>
<path d="M22.3299 10.5V11.02C22.3392 12.5302 22.0486 14.0272 21.475 15.4242C20.9013 16.8212 20.0561 18.0904 18.9882 19.1583C17.9203 20.2262 16.6511 21.0714 15.2541 21.6451C13.8571 22.2187 12.3601 22.5093 10.8499 22.5C8.65204 22.5064 6.49911 21.8779 4.6499 20.69H5.6499C7.46336 20.69 9.22424 20.0808 10.6499 18.96C9.80484 18.9524 8.98388 18.6774 8.3048 18.1744C7.62572 17.6714 7.1234 16.9662 6.8699 16.16C7.12455 16.2006 7.38204 16.2207 7.6399 16.22C7.99705 16.2174 8.35272 16.1738 8.6999 16.09C7.79641 15.9056 6.98439 15.4147 6.40126 14.7003C5.81813 13.986 5.49971 13.0921 5.4999 12.17C6.05899 12.4784 6.68197 12.653 7.3199 12.68C6.75702 12.3077 6.29584 11.8009 5.97806 11.2055C5.66029 10.6101 5.49595 9.94489 5.4999 9.27001C5.50115 8.56749 5.6874 7.87769 6.0399 7.27001C7.05163 8.51766 8.31414 9.53889 9.74566 10.2676C11.1772 10.9963 12.7458 11.4161 14.3499 11.5C14.2865 11.1974 14.253 10.8892 14.2499 10.58C14.2239 9.75689 14.4525 8.94578 14.9046 8.25746C15.3568 7.56913 16.0103 7.03714 16.7761 6.73411C17.5419 6.43109 18.3825 6.37181 19.1832 6.56437C19.9839 6.75693 20.7057 7.19195 21.2499 7.81001C22.1549 7.62822 23.0213 7.28981 23.8099 6.81001C23.5087 7.74317 22.8753 8.5332 22.0299 9.03001C22.8336 8.94316 23.6193 8.73408 24.3599 8.41001C23.8115 9.21097 23.136 9.91694 22.3599 10.5H22.3299Z" fill="#F8F8F8"/>
</svg>
